<svg width="41" height="41" viewBox="0 0 41 41" fill="none" xmlns="http://www.w3.org/2000/svg">
<path d="M12.7971 23.9201C5.12671 19.8201 5.12671 17.7701 5.12671 17.0867C5.12671 16.4034 5.12671 14.3534 12.7971 10.2534M12.7971 23.9201C5.12671 28.0201 5.125 29.3867 5.125 30.7534M12.7971 23.9201C20.4675 19.8201 20.4675 17.7701 20.4675 17.0867C20.4675 16.4034 20.4675 14.3534 12.7971 10.2534M12.7971 10.2534C20.4675 6.15341 20.4675 4.78674 20.4675 3.42007M12.7971 10.2534L9.06783 8.10774C5.125 5.60845 5.125 4.51512 5.125 3.42007M24.6205 20.5017V23.8825M18.6635 26.4809H22.169M32.3678 26.4809H35.875M32.3695 31.5614H35.875M18.6635 31.5614H22.169M24.6205 34.2008V37.5833M29.7882 34.2008V37.5833M29.7711 20.5V23.8808M23.8774 34.1103H30.6595C31.1125 34.1103 31.5471 33.9303 31.8674 33.6099C32.1878 33.2895 32.3678 32.855 32.3678 32.4019V25.5908C32.3678 25.1377 32.1878 24.7032 31.8674 24.3829C31.5471 24.0625 31.1125 23.8825 30.6595 23.8825H23.8774C23.4243 23.8825 22.9898 24.0625 22.6694 24.3829C22.349 24.7032 22.169 25.1377 22.169 25.5908V32.4037C22.169 32.8567 22.349 33.2913 22.6694 33.6116C22.9898 33.932 23.4243 34.112 23.8774 34.112" stroke="black" stroke-width="3" stroke-linecap="round" stroke-linejoin="round"/>
</svg>
